#!OML:ASF E:\Style4\Style4.ASF
:FULLY-SPECIFIED
:DEGREES
1384
root 0.338616 17.3129 -2.51742 10.0649 15.0977 5.14652
lowerback 18.2752 6.0405 3.45934
upperback 11.0533 8.47654 2.16355
thorax 1.90394 4.39553 -0.983372
lowerneck 2.85989 -10.8639 -3.01319
upperneck -11.8513 -14.7351 2.06616
head -3.99205 -7.28568 1.78357
rclavicle -6.99722e-014 1.27222e-014
rhumerus 62.9605 7.7481 -28.5389
rradius 65.8672
rwrist -92.1426
rhand -3.90018 13.0737
rfingers 7.12502
rthumb 21.8498 -15.7127
lclavicle -6.99722e-014 1.27222e-014
lhumerus 51.2639 0.764966 -7.67593
lradius 76.2431
lwrist 87.0868
lhand 11.3611 24.8727
lfingers 7.12502
lthumb 36.4161 51.0859
rfemur -34.7499 -12.2478 12.7971
rtibia 47.3558
rfoot -20.2656 -16.023
rtoes -10.4126
lfemur -36.0209 0.673377 -26.7489
ltibia 39.1278
lfoot -11.0928 -4.66283
ltoes -2.34683
1385
root 0.353478 17.3153 -2.52817 9.98668 14.8199 4.92349
lowerback 18.269 5.82177 3.32595
upperback 11.1626 8.16967 2.29696
thorax 1.97258 4.23255 -0.71947
lowerneck 2.36189 -10.4772 -3.43669
upperneck -11.7094 -14.2113 2.1014
head -3.82493 -7.01442 1.79817
rclavicle 1.51076e-013 4.77083e-015
rhumerus 63.3343 7.5303 -28.6021
rradius 65.714
rwrist -91.9518
rhand -3.88624 12.7337
rfingers 7.12502
rthumb 21.8632 -16.0512
lclavicle 1.51076e-013 4.77083e-015
lhumerus 51.3046 1.00801 -6.96417
lradius 75.7871
lwrist 86.4571
lhand 11.1105 24.7474
lfingers 7.12502
lthumb 36.1789 51.0198
rfemur -34.7725 -12.031 12.966
rtibia 47.2436
rfoot -20.1678 -15.9413
rtoes -10.3957
lfemur -36.0903 0.789007 -26.5664
ltibia 39.2643
lfoot -11.1983 -4.507
ltoes -2.2098
1386
root 0.364978 17.3152 -2.53747 9.88086 14.6083 4.70427
lowerback 18.3281 5.61808 3.20717
upperback 11.1632 7.88952 2.40897
thorax 1.8987 4.08048 -0.504954
lowerneck 2.30427 -10.1026 -3.73267
upperneck -11.7197 -13.7125 2.15623
head -3.8066 -6.7565 1.84423
rclavicle -7.31528e-014 2.38542e-014
rhumerus 63.461 7.38105 -28.594
rradius 65.586
rwrist -91.4909
rhand -3.87535 12.475
rfingers 7.12502
rthumb 21.8737 -16.3086
lclavicle -7.31528e-014 2.38542e-014
lhumerus 51.5587 1.02761 -6.21457
lradius 75.3283
lwrist 85.9471
lhand 11.0829 24.7565
lfingers 7.12502
lthumb 36.1527 51.0354
rfemur -34.7498 -11.8769 13.1465
rtibia 47.1447
rfoot -19.9984 -15.9514
rtoes -10.852
lfemur -36.1425 0.923354 -26.3872
ltibia 39.4209
lfoot -11.2976 -4.39869
ltoes -2.51986
1387
root 0.379586 17.3127 -2.54584 9.85381 14.4107 4.64364
lowerback 18.282 5.60549 3.20228
upperback 11.0241 7.87169 2.31583
thorax 1.78281 4.06988 -0.602475
lowerneck 2.8693 -9.93699 -3.33227
upperneck -11.8937 -13.4894 2.14952
head -4.01342 -6.65626 1.82516
rclavicle -1.90833e-014 -2.22639e-014
rhumerus 62.7942 7.04333 -28.7836
rradius 65.2768
rwrist -90.8845
rhand -3.54769 12.559
rfingers 7.12502
rthumb 22.1882 -16.1875
lclavicle -1.90833e-014 -2.22639e-014
lhumerus 52.6377 0.96554 -5.60741
lradius 74.9061
lwrist 85.7095
lhand 11.5001 25.3548
lfingers 7.12502
lthumb 36.5477 51.5349
rfemur -34.7843 -11.8599 13.1551
rtibia 47.0921
rfoot -19.8769 -15.7999
rtoes -11.0344
lfemur -36.2173 0.993552 -26.3873
ltibia 39.5747
lfoot -11.3935 -4.26638
ltoes -2.4194
1388
root 0.393944 17.3075 -2.55585 9.81815 14.1475 4.58973
lowerback 18.2323 5.45461 3.05603
upperback 11.1161 7.64934 2.30459
thorax 1.88211 3.9541 -0.489429
lowerneck 2.57595 -9.64987 -3.38497
upperneck -11.8195 -13.0927 2.13041
head -3.93967 -6.45835 1.79148
rclavicle -2.38542e-014 -6.36111e-015
rhumerus 62.8743 6.66702 -28.9496
rradius 64.9645
rwrist -90.4452
rhand -2.55546 12.7705
rfingers 7.12502
rthumb 23.1405 -15.8597
lclavicle -2.38542e-014 -6.36111e-015
lhumerus 53.1092 1.29343 -4.96165
lradius 74.4834
lwrist 85.6106
lhand 12.4387 26.7674
lfingers 7.12502
lthumb 37.4355 52.718
rfemur -34.8529 -11.7853 13.1537
rtibia 47.0784
rfoot -19.7762 -15.6352
rtoes -11.1972
lfemur -36.2982 1.09041 -26.3945
ltibia 39.747
lfoot -11.5447 -4.09036
ltoes -2.8772
1389
root 0.40591 17.3026 -2.5665 9.755 13.8179 4.51913
lowerback 18.2298 5.03073 2.6068
upperback 11.5581 7.02577 2.50053
thorax 2.26417 3.62232 0.0846026
lowerneck 0.796243 -9.08625 -4.47255
upperneck -11.2653 -12.2873 2.19573
head -3.35682 -6.03092 1.81671
rclavicle -5.88403e-014 3.65764e-014
rhumerus 64.2632 6.29738 -28.8338
rradius 64.8267
rwrist -90.3331
rhand -1.75267 12.5629
rfingers 7.12502
rthumb 23.9106 -15.9685
lclavicle -5.88403e-014 3.65764e-014
lhumerus 52.3385 2.11861 -4.16447
lradius 74.0504
lwrist 85.3889
lhand 11.8574 25.3733
lfingers 7.12502
lthumb 36.8858 51.4672
rfemur -34.9352 -11.6059 13.1577
rtibia 47.0937
rfoot -19.6816 -15.4808
rtoes -11.4276
lfemur -36.3648 1.25126 -26.3791
ltibia 39.9194
lfoot -11.644 -3.9147
ltoes -3.05067
